<mxfile host="Electron" modified="2024-07-11T12:02:27.424Z" agent="Mozilla/5.0 (Windows NT 10.0; Win64; x64) AppleWebKit/537.36 (KHTML, like Gecko) draw.io/24.4.0 Chrome/120.0.6099.109 Electron/28.1.0 Safari/537.36" etag="HRCaFuMgy-og-fSnPlOu" version="24.4.0" type="device">
  <diagram name="Page-1" id="ZdrJoeNxQFXwP9cBJcBo">
    <mxGraphModel dx="592" dy="351" grid="1" gridSize="10" guides="1" tooltips="1" connect="1" arrows="1" fold="1" page="1" pageScale="1" pageWidth="850" pageHeight="1100" math="0" shadow="0">
      <root>
        <mxCell id="0" />
        <mxCell id="1" parent="0" />
        <mxCell id="YSek3v5wOM3ItACeI0MP-1" value="Societe" style="swimlane;fontStyle=1;align=center;verticalAlign=top;childLayout=stackLayout;horizontal=1;startSize=26;horizontalStack=0;resizeParent=1;resizeParentMax=0;resizeLast=0;collapsible=1;marginBottom=0;whiteSpace=wrap;html=1;" vertex="1" parent="1">
          <mxGeometry x="160" y="170" width="160" height="86" as="geometry" />
        </mxCell>
        <mxCell id="YSek3v5wOM3ItACeI0MP-2" value="+ nom: string" style="text;strokeColor=none;fillColor=none;align=left;verticalAlign=top;spacingLeft=4;spacingRight=4;overflow=hidden;rotatable=0;points=[[0,0.5],[1,0.5]];portConstraint=eastwest;whiteSpace=wrap;html=1;" vertex="1" parent="YSek3v5wOM3ItACeI0MP-1">
          <mxGeometry y="26" width="160" height="26" as="geometry" />
        </mxCell>
        <mxCell id="YSek3v5wOM3ItACeI0MP-3" value="+ adresse: string" style="text;strokeColor=none;fillColor=none;align=left;verticalAlign=top;spacingLeft=4;spacingRight=4;overflow=hidden;rotatable=0;points=[[0,0.5],[1,0.5]];portConstraint=eastwest;whiteSpace=wrap;html=1;" vertex="1" parent="YSek3v5wOM3ItACeI0MP-1">
          <mxGeometry y="52" width="160" height="26" as="geometry" />
        </mxCell>
        <mxCell id="YSek3v5wOM3ItACeI0MP-4" value="" style="line;strokeWidth=1;fillColor=none;align=left;verticalAlign=middle;spacingTop=-1;spacingLeft=3;spacingRight=3;rotatable=0;labelPosition=right;points=[];portConstraint=eastwest;strokeColor=inherit;" vertex="1" parent="YSek3v5wOM3ItACeI0MP-1">
          <mxGeometry y="78" width="160" height="8" as="geometry" />
        </mxCell>
        <mxCell id="YSek3v5wOM3ItACeI0MP-8" value="Personne" style="swimlane;fontStyle=1;align=center;verticalAlign=top;childLayout=stackLayout;horizontal=1;startSize=26;horizontalStack=0;resizeParent=1;resizeParentMax=0;resizeLast=0;collapsible=1;marginBottom=0;whiteSpace=wrap;html=1;" vertex="1" parent="1">
          <mxGeometry x="580" y="170" width="160" height="86" as="geometry" />
        </mxCell>
        <mxCell id="YSek3v5wOM3ItACeI0MP-9" value="+ nom: string" style="text;strokeColor=none;fillColor=none;align=left;verticalAlign=top;spacingLeft=4;spacingRight=4;overflow=hidden;rotatable=0;points=[[0,0.5],[1,0.5]];portConstraint=eastwest;whiteSpace=wrap;html=1;" vertex="1" parent="YSek3v5wOM3ItACeI0MP-8">
          <mxGeometry y="26" width="160" height="26" as="geometry" />
        </mxCell>
        <mxCell id="YSek3v5wOM3ItACeI0MP-10" value="+ email: string" style="text;strokeColor=none;fillColor=none;align=left;verticalAlign=top;spacingLeft=4;spacingRight=4;overflow=hidden;rotatable=0;points=[[0,0.5],[1,0.5]];portConstraint=eastwest;whiteSpace=wrap;html=1;" vertex="1" parent="YSek3v5wOM3ItACeI0MP-8">
          <mxGeometry y="52" width="160" height="26" as="geometry" />
        </mxCell>
        <mxCell id="YSek3v5wOM3ItACeI0MP-11" value="" style="line;strokeWidth=1;fillColor=none;align=left;verticalAlign=middle;spacingTop=-1;spacingLeft=3;spacingRight=3;rotatable=0;labelPosition=right;points=[];portConstraint=eastwest;strokeColor=inherit;" vertex="1" parent="YSek3v5wOM3ItACeI0MP-8">
          <mxGeometry y="78" width="160" height="8" as="geometry" />
        </mxCell>
        <mxCell id="YSek3v5wOM3ItACeI0MP-15" value="" style="endArrow=none;html=1;edgeStyle=orthogonalEdgeStyle;rounded=0;" edge="1" parent="1" source="YSek3v5wOM3ItACeI0MP-1" target="YSek3v5wOM3ItACeI0MP-8">
          <mxGeometry relative="1" as="geometry">
            <mxPoint x="340" y="320" as="sourcePoint" />
            <mxPoint x="500" y="320" as="targetPoint" />
          </mxGeometry>
        </mxCell>
        <mxCell id="YSek3v5wOM3ItACeI0MP-16" value="employeur" style="edgeLabel;resizable=0;html=1;align=left;verticalAlign=bottom;" connectable="0" vertex="1" parent="YSek3v5wOM3ItACeI0MP-15">
          <mxGeometry x="-1" relative="1" as="geometry" />
        </mxCell>
        <mxCell id="YSek3v5wOM3ItACeI0MP-17" value="employÃ©" style="edgeLabel;resizable=0;html=1;align=right;verticalAlign=bottom;" connectable="0" vertex="1" parent="YSek3v5wOM3ItACeI0MP-15">
          <mxGeometry x="1" relative="1" as="geometry">
            <mxPoint x="-10" y="-3" as="offset" />
          </mxGeometry>
        </mxCell>
        <mxCell id="YSek3v5wOM3ItACeI0MP-18" value="emploie" style="edgeLabel;html=1;align=center;verticalAlign=middle;resizable=0;points=[];" vertex="1" connectable="0" parent="YSek3v5wOM3ItACeI0MP-15">
          <mxGeometry x="-0.0235" y="1" relative="1" as="geometry">
            <mxPoint as="offset" />
          </mxGeometry>
        </mxCell>
        <mxCell id="YSek3v5wOM3ItACeI0MP-19" value="1..*" style="edgeLabel;html=1;align=center;verticalAlign=middle;resizable=0;points=[];" vertex="1" connectable="0" parent="YSek3v5wOM3ItACeI0MP-15">
          <mxGeometry x="0.8944" y="-1" relative="1" as="geometry">
            <mxPoint x="-9" y="16" as="offset" />
          </mxGeometry>
        </mxCell>
        <mxCell id="YSek3v5wOM3ItACeI0MP-20" value="1" style="edgeLabel;html=1;align=center;verticalAlign=middle;resizable=0;points=[];" vertex="1" connectable="0" parent="YSek3v5wOM3ItACeI0MP-15">
          <mxGeometry x="-0.8251" y="-1" relative="1" as="geometry">
            <mxPoint y="16" as="offset" />
          </mxGeometry>
        </mxCell>
      </root>
    </mxGraphModel>
  </diagram>
</mxfile>
